<svg width="62" height="62" viewBox="0 0 62 62" fill="none" xmlns="http://www.w3.org/2000/svg">
<g clip-path="url(#clip0_100_1772)">
<path d="M52.3026 11.7428C52.2603 11.4348 51.9912 11.264 51.7679 11.2454C51.5464 11.2268 47.2049 11.1608 47.2049 11.1608C47.2049 11.1608 43.5741 7.63489 43.2154 7.27621C42.8568 6.91753 42.1563 7.02581 41.8839 7.10702C41.8806 7.10872 41.2021 7.31851 40.0601 7.67211C39.8689 7.05289 39.588 6.29153 39.187 5.52679C37.8945 3.06002 36.0012 1.75557 33.7137 1.75219C33.7104 1.75219 33.7087 1.75219 33.7053 1.75219C33.5462 1.75219 33.3889 1.76742 33.2299 1.78094C33.1622 1.69974 33.0946 1.62022 33.0235 1.54239C32.0269 0.476501 30.7496 -0.0429102 29.2184 0.00277081C26.2644 0.0873654 23.3222 2.22084 20.9367 6.01068C19.2583 8.67709 17.9809 12.0271 17.6188 14.6207C14.2266 15.6714 11.8545 16.4056 11.8021 16.4226C10.0899 16.9606 10.0358 17.013 9.81244 18.6271C9.64663 19.8469 5.1665 54.4902 5.1665 54.4902L42.7113 60.9836L58.9838 56.9383C58.9838 56.9383 52.3448 12.0508 52.3026 11.7428ZM38.1804 8.25412C37.3158 8.52144 36.3328 8.82598 35.2669 9.15591C35.2449 7.66027 35.0673 5.57925 34.3702 3.78076C36.612 4.20543 37.7151 6.74157 38.1804 8.25412ZM33.3026 9.76498C31.335 10.374 29.1879 11.0389 27.0342 11.7056C27.6399 9.386 28.7887 7.07657 30.1998 5.56233C30.7242 4.99893 31.4585 4.37123 32.3281 4.01255C33.1453 5.71798 33.3229 8.13231 33.3026 9.76498ZM29.2776 1.96874C29.9713 1.95352 30.555 2.10579 31.0541 2.43402C30.2556 2.84853 29.484 3.44408 28.7599 4.22065C26.8836 6.23401 25.4455 9.35893 24.8719 12.3739C23.0836 12.9271 21.3342 13.4703 19.7235 13.9677C20.7404 9.22189 24.7179 2.10071 29.2776 1.96874Z" fill="#95BF47"/>
<path d="M51.7696 11.2473C51.548 11.2287 47.2066 11.1628 47.2066 11.1628C47.2066 11.1628 43.5758 7.63685 43.2171 7.27818C43.0835 7.14451 42.9024 7.07514 42.7129 7.04639L42.7146 60.9822L58.9856 56.9386C58.9856 56.9386 52.3466 12.0527 52.3043 11.7448C52.2619 11.4368 51.9912 11.2659 51.7696 11.2473Z" fill="#5E8E3E"/>
<path d="M33.6934 19.6136L31.8037 26.684C31.8037 26.684 29.6956 25.7247 27.1967 25.882C23.5319 26.1139 23.493 28.4249 23.5303 29.0053C23.7299 32.1674 32.0489 32.8577 32.516 40.2648C32.8831 46.0917 29.4248 50.0778 24.4422 50.3925C18.4614 50.7697 15.1689 47.2421 15.1689 47.2421L16.4362 41.8518C16.4362 41.8518 19.7506 44.3524 22.4034 44.1849C24.136 44.075 24.7552 42.6656 24.6926 41.6691C24.4321 37.5442 17.6577 37.7879 17.2297 31.0101C16.8693 25.3069 20.6152 19.5273 28.88 19.0062C32.0642 18.8015 33.6934 19.6136 33.6934 19.6136Z" fill="white"/>
</g>
<defs>
<clipPath id="clip0_100_1772">
<rect width="53.8689" height="62" fill="white" transform="translate(5.1665)"/>
</clipPath>
</defs>
</svg>
